HIERARCHY
ROOT Hips
{
	OFFSET 29.804300 14.519284 98.507202
	CHANNELS 6 Xposition Yposition Zposition Xrotation Yrotation Zrotation
	JOINT spine
	{
		OFFSET 0.000000 -0.477352 8.301041
		CHANNELS 3 Xrotation Yrotation Zrotation
		JOINT spine1
		{
			OFFSET 0.000000 -0.000002 10.456497
			CHANNELS 3 Xrotation Yrotation Zrotation
			JOINT spine2
			{
				OFFSET 0.000000 -0.000002 10.019203
				CHANNELS 3 Xrotation Yrotation Zrotation
				JOINT Neck
				{
					OFFSET 0.000000 -1.226414 25.723503
					CHANNELS 3 Xrotation Yrotation Zrotation
					JOINT Head
					{
						OFFSET 0.000000 -0.000001 7.771744
						CHANNELS 3 Xrotation Yrotation Zrotation
						End Site
						{
							OFFSET 0.000000 6.203938 18.811996
						}
					}
				}
				JOINT RightShoulder
				{
					OFFSET -4.218800 0.587437 10.820000
					CHANNELS 3 Xrotation Yrotation Zrotation
					JOINT RightArm
					{
						OFFSET 0.000000 -0.000002 14.191406
						CHANNELS 3 Xrotation Yrotation Zrotation
						JOINT RightArmRoll
						{
							OFFSET 0.000000 -0.000001 7.164078
							CHANNELS 3 Xrotation Yrotation Zrotation
							JOINT RightForeArm
							{
								OFFSET 0.000000 -0.000004 20.866501
								CHANNELS 3 Xrotation Yrotation Zrotation
								JOINT RightForeArmRoll
								{
									OFFSET 0.000000 -0.000001 8.039215
									CHANNELS 3 Xrotation Yrotation Zrotation
									JOINT RightHand
									{
										OFFSET 0.000000 -0.000003 16.132996
										CHANNELS 3 Xrotation Yrotation Zrotation
										End Site
										{
											OFFSET 0.000000 0.000000 0.100006
										}
									}
								}
							}
						}
					}
				}
				JOINT LeftShoulder
				{
					OFFSET 4.218801 0.587437 10.820000
					CHANNELS 3 Xrotation Yrotation Zrotation
					JOINT LeftArm
					{
						OFFSET 0.000000 -0.000002 14.191406
						CHANNELS 3 Xrotation Yrotation Zrotation
						JOINT LeftArmRoll
						{
							OFFSET 0.000000 -0.000001 7.164093
							CHANNELS 3 Xrotation Yrotation Zrotation
							JOINT LeftForeArm
							{
								OFFSET 0.000000 -0.000004 20.866501
								CHANNELS 3 Xrotation Yrotation Zrotation
								JOINT LeftForeArmRoll
								{
									OFFSET 0.000000 -0.000001 8.039215
									CHANNELS 3 Xrotation Yrotation Zrotation
									JOINT LeftHand
									{
										OFFSET 0.000000 -0.000003 16.132996
										CHANNELS 3 Xrotation Yrotation Zrotation
										End Site
										{
											OFFSET 0.000000 0.000000 0.100006
										}
									}
								}
							}
						}
					}
				}
			}
		}
	}
	JOINT RightUpLeg
	{
		OFFSET -7.357729 1.131820 -1.349213
		CHANNELS 3 Xrotation Yrotation Zrotation
		JOINT RightUpLegRoll
		{
			OFFSET 0.000000 -0.000003 18.916801
			CHANNELS 3 Xrotation Yrotation Zrotation
			JOINT RightLeg
			{
				OFFSET 0.000000 0.000004 -23.425598
				CHANNELS 3 Xrotation Yrotation Zrotation
				JOINT RightLegRoll
				{
					OFFSET 0.000000 -0.000004 23.502296
					CHANNELS 3 Xrotation Yrotation Zrotation
					JOINT RightFoot
					{
						OFFSET 0.000000 -0.000003 19.561707
						CHANNELS 3 Xrotation Yrotation Zrotation
						JOINT RightToeBase
						{
							OFFSET 0.000000 -0.000003 16.352600
							CHANNELS 3 Xrotation Yrotation Zrotation
							End Site
							{
								OFFSET 0.006931 0.912835 7.919434
							}
						}
					}
				}
			}
		}
	}
	JOINT LeftUpLeg
	{
		OFFSET 7.357729 1.131820 -1.349213
		CHANNELS 3 Xrotation Yrotation Zrotation
		JOINT LeftUpLegRoll
		{
			OFFSET 0.000000 -0.000003 18.916901
			CHANNELS 3 Xrotation Yrotation Zrotation
			JOINT LeftLeg
			{
				OFFSET 0.000000 -0.000004 23.425507
				CHANNELS 3 Xrotation Yrotation Zrotation
				JOINT LeftLegRoll
				{
					OFFSET 0.000000 -0.000004 23.719498
					CHANNELS 3 Xrotation Yrotation Zrotation
					JOINT LeftFoot
					{
						OFFSET 0.000000 -0.000003 19.344406
						CHANNELS 3 Xrotation Yrotation Zrotation
						JOINT LeftToeBase
						{
							OFFSET 0.000000 -0.000003 16.352600
							CHANNELS 3 Xrotation Yrotation Zrotation
							End Site
							{
								OFFSET -0.031063 0.912835 7.919434
							}
						}
					}
				}
			}
		}
	}
}
MOTION
Frames: 8
Frame Time: 0.041667
31.809200 11.567284 108.931992 -3.044741 -2.123801 2.553580 -1.191558 0.081815 0.413033 1.619166 0.159086 0.826898 3.264175 0.168979 0.824933 17.803522 -3.349062 -1.268506 -12.849803 6.580686 -1.184130 -13.097867 -55.440615 -15.330489 -131.001881 -127.008051 -94.131461 -0.000006 -0.000020 0.000001 55.979858 2.703540 1.458245 0.000008 0.000009 -3.002789 -5.000221 -7.998870 0.000113 -7.954286 52.600571 8.908955 -128.699779 124.421021 95.043810 -0.000001 0.000002 0.000002 45.742443 -1.419457 1.016662 -0.000001 -0.000009 2.999993 -5.000219 7.998826 -0.000146 -3.318356 -167.019067 6.077134 179.999991 -0.000007 -1.320995 162.841941 -3.250928 -1.422083 -0.000002 0.000003 0.226728 67.757724 6.890844 2.219244 25.456959 -7.355618 0.000002 -7.356310 171.857668 -0.750458 -0.000004 -0.000006 -1.261720 -18.734828 2.169645 1.256774 -0.000005 -0.000004 -0.240116 67.515484 -6.932852 -2.127075 25.456955 7.355613 0.000009 
31.799599 11.536586 109.025993 -3.017443 -2.091569 2.557342 -1.192511 0.078174 0.415086 1.617276 0.151775 0.830965 3.262283 0.161719 0.829086 17.747032 -3.408246 -1.286442 -12.823775 6.621178 -1.200963 -13.141248 -55.611813 -15.390324 -130.882831 -126.567244 -94.055885 -0.000006 -0.000021 -0.000001 55.464428 2.639495 1.443037 0.000009 0.000010 -3.002791 -5.000221 -7.998870 0.000113 -7.977763 52.648819 8.941608 -128.369225 124.015676 94.828557 -0.000002 0.000002 -0.000002 45.496023 -1.380639 1.008782 -0.000002 -0.000006 2.999990 -5.000221 7.998824 -0.000142 -3.376130 -167.247427 6.002556 179.999991 -0.000004 -1.312006 162.830986 -3.342478 -1.432988 -0.000000 0.000004 0.229438 67.813397 6.889887 2.218072 25.456959 -7.355617 0.000001 -7.400295 172.011225 -0.717726 -0.000004 -0.000005 -1.258410 -18.761198 2.241955 1.269208 -0.000005 -0.000005 -0.243133 67.537484 -6.931665 -2.128353 25.456953 7.355612 0.000009 
31.774097 11.546884 109.078995 -2.994218 -2.060615 2.558230 -1.193059 0.074288 0.416778 1.616215 0.143984 0.834306 3.261222 0.153967 0.832520 17.706053 -3.460731 -1.303976 -12.812696 6.662997 -1.217027 -13.175735 -55.777545 -15.438956 -130.755721 -126.126779 -93.971976 0.000000 -0.000018 0.000001 54.956474 2.574623 1.428765 0.000010 0.000009 -3.002789 -5.000224 -7.998875 0.000113 -8.001635 52.701436 8.975022 -128.036308 123.601794 94.622470 -0.000000 0.000003 -0.000000 45.219773 -1.334985 0.998726 -0.000002 -0.000006 2.999990 -5.000219 7.998827 -0.000144 -3.433616 -167.474818 5.922064 179.999991 -0.000005 -1.303004 162.813282 -3.423401 -1.443100 -0.000002 0.000003 0.231973 67.868728 6.888791 2.217401 25.456960 -7.355615 0.000001 -7.434914 172.162609 -0.685566 -0.000005 -0.000004 -1.255110 -18.784560 2.311838 1.280961 -0.000005 -0.000005 -0.245915 67.557961 -6.930288 -2.130188 25.456953 7.355615 0.000009 
31.821499 11.604484 109.153000 -2.975692 -2.031419 2.555885 -1.193098 0.070161 0.418015 1.616165 0.135714 0.836733 3.261171 0.145728 0.835047 17.682865 -3.504887 -1.320863 -12.818669 6.705577 -1.232052 -13.199259 -55.937231 -15.473853 -130.620032 -125.685904 -93.878758 -0.000002 -0.000023 -0.000001 54.457604 2.508904 1.415539 0.000006 0.000013 -3.002789 -5.000220 -7.998871 0.000111 -8.025723 52.759967 9.009050 -127.703760 123.177694 94.428704 0.000000 0.000001 0.000000 44.908893 -1.281931 0.986461 -0.000001 -0.000006 2.999993 -5.000219 7.998823 -0.000144 -3.490903 -167.702167 5.835389 179.999991 -0.000006 -1.295000 162.787655 -3.491730 -1.451896 -0.000001 0.000003 0.234342 67.923609 6.887591 2.216937 25.456962 -7.355615 0.000000 -7.458687 172.313788 -0.653815 -0.000004 -0.000004 -1.251780 -18.804011 2.378843 1.291858 -0.000004 -0.000005 -0.248421 67.576812 -6.928713 -2.132690 25.456953 7.355613 0.000009 
31.801598 11.590583 109.219994 -2.961678 -2.002643 2.550211 -1.192717 0.065542 0.419012 1.616944 0.126470 0.838673 3.261950 0.136506 0.837097 17.679132 -3.544648 -1.337938 -12.845177 6.754834 -1.246683 -13.213975 -56.088100 -15.497559 -130.469768 -125.243813 -93.772261 -0.000004 -0.000023 -0.000002 53.967743 2.441564 1.403078 0.000008 0.000009 -3.002790 -5.000223 -7.998873 0.000111 -8.050632 52.822849 9.044325 -127.366772 122.744592 94.249514 0.000001 0.000003 0.000002 44.561780 -1.219414 0.972127 -0.000001 -0.000006 2.999991 -5.000219 7.998826 -0.000144 -3.547562 -167.933479 5.739281 179.999991 -0.000004 -1.286994 162.755731 -3.546530 -1.460000 -0.000000 0.000004 0.236432 67.979534 6.886300 2.216494 25.456955 -7.355617 0.000002 -7.471466 172.462796 -0.623550 -0.000003 -0.000005 -1.248510 -18.818257 2.443946 1.302048 -0.000005 -0.000005 -0.250658 67.593205 -6.927015 -2.135522 25.456959 7.355614 0.000008 
31.798399 11.585384 109.294998 -2.951302 -1.972772 2.541573 -1.192110 0.060251 0.420033 1.618204 0.115881 0.840654 3.263207 0.125942 0.839204 17.694059 -3.584765 -1.356043 -12.891968 6.815840 -1.261631 -13.223707 -56.228730 -15.514712 -130.300352 -124.800820 -93.649646 -0.000004 -0.000026 -0.000003 53.484951 2.371969 1.391044 0.000007 0.000012 -3.002789 -5.000223 -7.998864 0.000116 -8.076988 52.887135 9.081465 -127.019225 122.304919 94.083431 -0.000001 0.000003 0.000002 44.182650 -1.146492 0.956171 -0.000002 -0.000009 2.999990 -5.000221 7.998824 -0.000144 -3.603137 -168.169762 5.631625 179.999991 -0.000004 -1.278006 162.720473 -3.587884 -1.466224 -0.000000 0.000004 0.238148 68.037563 6.885007 2.215918 25.456957 -7.355616 0.000002 -7.474792 172.608634 -0.596015 -0.000003 -0.000004 -1.245369 -18.827215 2.508382 1.311810 -0.000004 -0.000005 -0.252673 67.606722 -6.925157 -2.138801 25.456952 7.355616 0.000010 
31.793200 11.597786 109.385002 -2.944172 -1.941965 2.530293 -1.191300 0.054384 0.421061 1.619883 0.104142 0.842644 3.264887 0.114228 0.841335 17.725333 -3.624897 -1.374913 -12.956287 6.886671 -1.276683 -13.228808 -56.360669 -15.525862 -130.113382 -124.357814 -93.512058 -0.000005 -0.000020 0.000002 53.008340 2.300335 1.379380 0.000006 0.000016 -3.002790 -5.000222 -7.998871 0.000116 -8.104760 52.952425 9.120397 -126.661856 121.859563 93.928037 -0.000001 0.000004 -0.000002 43.775871 -1.064314 0.939096 0.000000 -0.000009 2.999992 -5.000220 7.998822 -0.000142 -3.657698 -168.412015 5.514128 179.999991 -0.000005 -1.270000 162.682129 -3.616753 -1.470841 -0.000001 0.000004 0.239526 68.097396 6.883714 2.215232 25.456960 -7.355616 0.000001 -7.469854 172.750374 -0.570699 -0.000005 -0.000004 -1.242369 -18.832083 2.572088 1.321175 -0.000004 -0.000005 -0.254492 67.617807 -6.923220 -2.142420 25.456953 7.355614 0.000011 
31.779999 11.581083 109.444000 -2.939924 -1.910404 2.516667 -1.190311 0.048040 0.422080 1.621913 0.091451 0.844611 3.266905 0.101562 0.843455 17.770646 -3.664681 -1.394317 -13.035290 6.965427 -1.291649 -13.229684 -56.485408 -15.531584 -129.910676 -123.915983 -93.360988 -0.000004 -0.000020 0.000000 52.536733 2.226901 1.368087 0.000005 0.000012 -3.002791 -5.000221 -7.998875 0.000112 -8.133915 53.018315 9.161019 -126.294651 121.409140 93.780382 -0.000001 0.000004 -0.000002 43.345415 -0.974025 0.921335 -0.000004 -0.000007 2.999987 -5.000221 7.998823 -0.000143 -3.711337 -168.659227 5.388362 179.999991 -0.000005 -1.261996 162.640943 -3.635992 -1.475688 -0.000001 0.000003 0.240605 68.158506 6.882438 2.214372 25.456957 -7.355617 0.000002 -7.457750 172.890024 -0.547514 -0.000004 -0.000004 -1.239490 -18.833958 2.634994 1.330177 -0.000004 -0.000004 -0.256139 67.626755 -6.921199 -2.146357 25.456953 7.355615 0.000009 
